<svg xmlns="http://www.w3.org/2000/svg" viewBox="0 0 108 108" width="1024" height="1024">
  <g transform="translate(54,54) scale(0.85) translate(-49,-49)" fill="#FFFFFF">
    <rect x="18" y="71.5" width="14" height="3" rx="1.5" opacity="0.7"/>
    <rect x="39" y="70.75" width="10" height="4.5" rx="2.25" opacity="0.7"/>
    <rect x="55" y="70" width="10" height="6" rx="3" opacity="0.7"/>
    <rect x="71" y="69.25" width="10" height="7.5" rx="3.75" opacity="0.7"/>
    <path d="M20,70 L26,54 L32,70 Z"/>
    <path d="M38,70 L44,46 L50,70 Z"/>
    <path d="M54,70 L60,36 L66,70 Z"/>
    <path d="M70,70 L76,22 L82,70 Z"/>
    <circle cx="14" cy="70" r="2"/>
    <circle cx="36" cy="70" r="2"/>
    <circle cx="52" cy="70" r="2"/>
    <circle cx="68" cy="70" r="2"/>
    <circle cx="84" cy="70" r="2.4"/>
  </g>
</svg>
