<svg xmlns="http://www.w3.org/2000/svg" viewBox="0 0 100 100" width="1024" height="1024">
  <rect x="0" y="0" width="100" height="100" fill="#000000"/>
  <g>
    <rect x="18" y="71.5" width="14" height="3" rx="1.5" fill="#1B5E3A" opacity="0.85"/>
    <rect x="39" y="70.75" width="10" height="4.5" rx="2.25" fill="#1B5E3A" opacity="0.85"/>
    <rect x="55" y="70" width="10" height="6" rx="3" fill="#1B5E3A" opacity="0.85"/>
    <rect x="71" y="69.25" width="10" height="7.5" rx="3.75" fill="#1B5E3A" opacity="0.85"/>
    <path d="M20,70 L26,54 L32,70 Z" fill="#2ECC71"/>
    <path d="M38,70 L44,46 L50,70 Z" fill="#2ECC71"/>
    <path d="M54,70 L60,36 L66,70 Z" fill="#2ECC71"/>
    <path d="M70,70 L76,22 L82,70 Z" fill="#2ECC71"/>
    <circle cx="14" cy="70" r="2" fill="#7FE8AC"/>
    <circle cx="36" cy="70" r="2" fill="#7FE8AC"/>
    <circle cx="52" cy="70" r="2" fill="#7FE8AC"/>
    <circle cx="68" cy="70" r="2" fill="#7FE8AC"/>
    <circle cx="84" cy="70" r="2.4" fill="#7FE8AC"/>
  </g>
</svg>
